<svg width="42" height="39" viewBox="0 0 42 39" fill="none" xmlns="http://www.w3.org/2000/svg">
<path d="M23.1532 19.5001L30.5774 12.5288C30.9025 12.2228 31.0852 11.8078 31.0852 11.3751C31.0852 10.9423 30.9025 10.5273 30.5774 10.2213C30.2523 9.91531 29.8113 9.74341 29.3515 9.74341C28.8918 9.74341 28.4508 9.91531 28.1257 10.2213L20.7187 17.2088L13.3118 10.2213C12.9867 9.91531 12.5457 9.74341 12.0859 9.74341C11.6261 9.74341 11.1852 9.91531 10.8601 10.2213C10.5349 10.5273 10.3523 10.9423 10.3523 11.3751C10.3523 11.8078 10.5349 12.2228 10.8601 12.5288L18.2843 19.5001L10.8601 26.4713C10.6982 26.6224 10.5698 26.8021 10.4821 27.0001C10.3945 27.1981 10.3493 27.4105 10.3493 27.6251C10.3493 27.8396 10.3945 28.052 10.4821 28.25C10.5698 28.448 10.6982 28.6277 10.8601 28.7788C11.0206 28.9311 11.2115 29.052 11.4219 29.1345C11.6323 29.217 11.858 29.2595 12.0859 29.2595C12.3139 29.2595 12.5395 29.217 12.7499 29.1345C12.9603 29.052 13.1513 28.9311 13.3118 28.7788L20.7187 21.7913L28.1257 28.7788C28.2862 28.9311 28.4772 29.052 28.6876 29.1345C28.8979 29.217 29.1236 29.2595 29.3515 29.2595C29.5795 29.2595 29.8051 29.217 30.0155 29.1345C30.2259 29.052 30.4169 28.9311 30.5774 28.7788C30.7392 28.6277 30.8677 28.448 30.9553 28.25C31.043 28.052 31.0881 27.8396 31.0881 27.6251C31.0881 27.4105 31.043 27.1981 30.9553 27.0001C30.8677 26.8021 30.7392 26.6224 30.5774 26.4713L23.1532 19.5001Z" fill="#D9D9D9"/>
</svg>
